
<svg width="60" height="157" viewBox="0 0 60 157" fill="none" xmlns="http://www.w3.org/2000/svg">
    <g filter="url(#filter0_d)">
    <rect x="5" y="40" width="50" height="78" rx="4" fill="white"/>
    <rect x="5" y="123" width="50" height="30" rx="4" fill="white"/>
    <path d="M38 130.8C38 131.242 37.6427 131.599 37.2005 131.599H22.7995C22.3573 131.599 22 131.242 22 130.8C22 130.357 22.3573 130 22.7995 130H37.2005C37.6408 130 38 130.357 38 130.8ZM30.505 132.891L36.7119 138.912C36.9996 139.193 37.0074 139.652 36.7273 139.942C36.5902 140.083 36.4029 140.162 36.2059 140.162H33.3439L33.3593 145.27C33.3613 145.672 33.0368 145.998 32.6351 146H27.3842C26.9825 146 26.6561 145.674 26.6561 145.272V140.162H23.7922C23.3905 140.162 23.0641 139.836 23.0641 139.434C23.0641 139.237 23.1433 139.05 23.2842 138.912L29.4911 132.891C29.775 132.617 30.2231 132.617 30.505 132.891Z" fill="#666666"/>
    <path d="M27.9584 5.21175C29.217 4.46475 30.783 4.46475 32.0416 5.21175L42.47 11.4013L53.0445 17.3378C54.3207 18.0543 55.1038 19.4105 55.0861 20.874L54.94 33L55.0861 45.1261C55.1038 46.5895 54.3207 47.9457 53.0445 48.6622L42.47 54.5987L32.0416 60.7882C30.783 61.5353 29.217 61.5352 27.9584 60.7882L17.53 54.5987L6.95547 48.6622C5.67927 47.9457 4.89624 46.5895 4.91387 45.126L5.06 33L4.91387 20.874C4.89624 19.4105 5.67926 18.0543 6.95547 17.3378L17.53 11.4013L27.9584 5.21175Z" fill="#F50A26"/>
    <path d="M37.5 29.6833V32.63C37.5001 32.841 37.4202 33.0441 37.2763 33.1985C37.1325 33.3528 36.9355 33.4469 36.725 33.4617C36.3608 33.4867 36.0633 33.5 35.8333 33.5C28.4692 33.5 22.5 27.5308 22.5 20.1667C22.5 19.9367 22.5125 19.6392 22.5383 19.275C22.5531 19.0645 22.6472 18.8675 22.8015 18.7237C22.9559 18.5798 23.159 18.4999 23.37 18.5H26.3167C26.42 18.4999 26.5197 18.5382 26.5964 18.6075C26.6731 18.6768 26.7213 18.7722 26.7317 18.875C26.7508 19.0667 26.7683 19.2192 26.785 19.335C26.9506 20.4908 27.29 21.6149 27.7917 22.6692C27.8708 22.8358 27.8192 23.035 27.6692 23.1417L25.8708 24.4267C26.9704 26.9887 29.0121 29.0305 31.5742 30.13L32.8575 28.335C32.91 28.2617 32.9865 28.2091 33.0737 28.1864C33.161 28.1637 33.2535 28.1723 33.335 28.2108C34.3892 28.7116 35.513 29.0501 36.6683 29.215C36.7842 29.2317 36.9367 29.25 37.1267 29.2683C37.2294 29.2789 37.3245 29.3271 37.3936 29.4038C37.4628 29.4805 37.501 29.5801 37.5008 29.6833H37.5Z" fill="white"/>
    <path d="M20.412 41.236V43.036H23.364V41.236H20.412ZM23.364 43.84H20.412V44.86H19.548V37.864H23.364V36.22H24.24V37.864H28.128V43.84H24.24V45.316C24.24 45.908 24.504 46.204 25.032 46.204H27.768C28.056 46.204 28.276 46.136 28.428 46C28.548 45.856 28.632 45.38 28.68 44.572L29.496 44.848C29.424 45.88 29.284 46.5 29.076 46.708C28.852 46.916 28.464 47.02 27.912 47.02H24.828C23.852 47.02 23.364 46.496 23.364 45.448V43.84ZM24.24 43.036H27.276V41.236H24.24V43.036ZM27.276 40.444V38.68H24.24V40.444H27.276ZM23.364 38.68H20.412V40.444H23.364V38.68ZM34.32 39.7H37.608V37.804C36.704 37.892 35.772 37.936 34.812 37.936L34.56 37.156C37.048 37.156 39.108 36.88 40.74 36.328L41.16 37.06C40.376 37.34 39.484 37.552 38.484 37.696V39.7H41.58V40.54H38.484V42.472H40.764V47.164H39.9V46.564H36.216V47.164H35.364V42.472H37.608V40.54H34.32V39.7ZM36.216 45.748H39.9V43.252H36.216V45.748ZM31.944 36.316C32.768 36.932 33.452 37.548 33.996 38.164L33.408 38.764C32.912 38.18 32.224 37.56 31.344 36.904L31.944 36.316ZM30.504 39.868H33.096V45.22C33.528 44.86 33.976 44.456 34.44 44.008L34.668 44.92C33.972 45.592 33.196 46.208 32.34 46.768L32.004 46C32.18 45.84 32.268 45.672 32.268 45.496V40.696H30.504V39.868Z" fill="white"/>
    <path d="M23.796 96.056C23.436 96.72 23 97.304 22.488 97.808L21.948 97.124C22.788 96.284 23.352 95.268 23.64 94.076L24.504 94.184C24.416 94.512 24.308 94.856 24.18 95.216H28.8V95.924C28.432 96.732 28.04 97.396 27.624 97.916L26.988 97.412C27.308 97.012 27.596 96.56 27.852 96.056H25.92C25.888 96.528 25.856 96.88 25.824 97.112C26.328 98.44 27.544 99.324 29.472 99.764L29.112 100.58C27.264 100.076 26.068 99.22 25.524 98.012C24.948 99.156 23.764 99.992 21.972 100.52L21.6 99.74C23.536 99.236 24.66 98.372 24.972 97.148C25.02 96.884 25.056 96.52 25.08 96.056H23.796ZM19.632 94.46C20.424 94.972 21.08 95.488 21.6 96.008L20.988 96.608C20.508 96.12 19.856 95.6 19.032 95.048L19.632 94.46ZM22.068 97.844C21.172 98.94 20.252 99.844 19.308 100.556L18.732 99.92C19.7 99.2 20.584 98.336 21.384 97.328L22.068 97.844ZM27.948 100.856V105.212H27.108V104.624H20.952V105.212H20.1V100.856H27.948ZM20.952 103.808H27.108V101.672H20.952V103.808ZM35.076 97.7H38.748V103.196H35.076V97.7ZM37.932 102.452V100.784H35.916V102.452H37.932ZM35.916 100.064H37.932V98.444H35.916V100.064ZM36.732 94.28C36.636 94.656 36.508 95.056 36.348 95.48H41.076C41.076 99.824 41.02 102.532 40.908 103.604C40.788 104.604 40.22 105.104 39.204 105.104C38.988 105.104 38.608 105.092 38.064 105.068L37.86 104.288C38.5 104.32 38.912 104.336 39.096 104.336C39.648 104.336 39.972 103.98 40.068 103.268C40.148 102.548 40.2 100.224 40.224 96.296H35.976C35.544 97.112 35.012 97.828 34.38 98.444L33.84 97.748C34.848 96.764 35.524 95.568 35.868 94.16L36.732 94.28ZM31.944 94.316C32.776 94.956 33.452 95.572 33.972 96.164L33.384 96.764C32.856 96.148 32.176 95.528 31.344 94.904L31.944 94.316ZM30.504 97.868H33.096V103.184C33.416 102.904 33.828 102.512 34.332 102.008L34.572 102.92C33.892 103.6 33.148 104.216 32.34 104.768L32.004 104C32.18 103.84 32.268 103.664 32.268 103.472V98.696H30.504V97.868Z" fill="#666666"/>
    <path d="M24.1075 86.8923C23.3325 86.1194 22.7179 85.2009 22.299 84.1897C21.8802 83.1784 21.6652 82.0944 21.6666 80.9998C21.6666 76.3973 25.3975 72.6665 30 72.6665C34.6025 72.6665 38.3333 76.3973 38.3333 80.9998C38.3333 85.6023 34.6025 89.3332 30 89.3332H21.6666L24.1075 86.8923ZM26.6666 81.8332C26.6666 82.7172 27.0178 83.5651 27.6429 84.1902C28.2681 84.8153 29.1159 85.1665 30 85.1665C30.884 85.1665 31.7319 84.8153 32.357 84.1902C32.9821 83.5651 33.3333 82.7172 33.3333 81.8332H26.6666Z" fill="#666666"/>
    </g>
    <defs>
    <filter id="filter0_d" x="0.913574" y="0.651367" width="58.1728" height="156.349" filterUnits="userSpaceOnUse" color-interpolation-filters="sRGB">
    <feFlood flood-opacity="0" result="BackgroundImageFix"/>
    <feColorMatrix in="SourceAlpha" type="matrix" values="0 0 0 0 0 0 0 0 0 0 0 0 0 0 0 0 0 0 127 0"/>
    <feOffset/>
    <feGaussianBlur stdDeviation="2"/>
    <feColorMatrix type="matrix" values="0 0 0 0 0 0 0 0 0 0 0 0 0 0 0 0 0 0 0.12 0"/>
    <feBlend mode="normal" in2="BackgroundImageFix" result="effect1_dropShadow"/>
    <feBlend mode="normal" in="SourceGraphic" in2="effect1_dropShadow" result="shape"/>
    </filter>
    </defs>
    </svg>
    